<?xml version="1.0" encoding="UTF-8" standalone="no"?>
<!-- Created with Inkscape (http://www.inkscape.org/) -->

<svg
   width="21.864998mm"
   height="10.908mm"
   viewBox="0 0 21.864998 10.908"
   version="1.1"
   id="svg1"
   xmlns="http://www.w3.org/2000/svg"
   xmlns:svg="http://www.w3.org/2000/svg"
   xmlns:rdf="http://www.w3.org/1999/02/22-rdf-syntax-ns#"
   xmlns:cc="http://creativecommons.org/ns#">
  <defs
     id="defs1" />
  <g
     id="layer2">
    <rect
       style="fill:#ffffff;stroke-width:0.307083"
       id="rect1"
       width="21.865"
       height="10.908"
       x="0"
       y="0" />
  </g>
  <g
     id="layer1"
     transform="translate(-97.091095,-146.37687)">
    <path
       id="path10069"
       style="fill:#000000;fill-opacity:1;fill-rule:nonzero;stroke:none;stroke-width:0.352778"
       d="m 107.37129,152.83053 0.54984,-1.4304 h 0.2067 l 0.58705,1.4304 h -0.21911 l -0.16536,-0.43408 h -0.59945 l -0.1571,0.43408 z m 0.41341,-0.58704 h 0.48783 l -0.14883,-0.39688 c -0.0475,-0.12092 -0.0817,-0.22014 -0.10335,-0.29766 -0.0196,0.091 -0.0455,0.18191 -0.0786,0.27286 z m 1.01493,0.12815 0.17777,-0.0165 c 0.008,0.0723 0.0269,0.13126 0.0579,0.17776 0.0331,0.0445 0.0806,0.0817 0.1447,0.11163 0.0661,0.0279 0.13849,0.0413 0.2191,0.0413 0.0744,0 0.1385,-0.0103 0.19431,-0.0331 0.0548,-0.0217 0.0951,-0.0506 0.11989,-0.0868 0.0269,-0.0382 0.0413,-0.0796 0.0413,-0.12403 0,-0.0434 -0.0145,-0.0827 -0.0413,-0.11575 -0.0248,-0.0351 -0.0662,-0.0641 -0.12403,-0.0868 -0.0393,-0.0134 -0.12402,-0.0351 -0.25631,-0.0661 -0.13229,-0.0331 -0.22531,-0.0641 -0.27699,-0.0951 -0.0692,-0.0331 -0.11989,-0.0754 -0.15296,-0.12816 -0.0331,-0.0548 -0.0496,-0.11575 -0.0496,-0.1819 0,-0.0713 0.0207,-0.13849 0.062,-0.20257 0.0413,-0.063 0.10026,-0.10955 0.17777,-0.14056 0.0796,-0.0331 0.16743,-0.0496 0.26458,-0.0496 0.10439,0 0.19637,0.0165 0.27699,0.0496 0.0827,0.0331 0.14573,0.0847 0.19017,0.15296 0.0434,0.0661 0.0672,0.14056 0.0703,0.22325 l -0.1819,0.0124 c -0.008,-0.0879 -0.0413,-0.15503 -0.0992,-0.20257 -0.0558,-0.0465 -0.13849,-0.0703 -0.24805,-0.0703 -0.11575,0 -0.2005,0.0227 -0.25218,0.0661 -0.0527,0.0413 -0.0785,0.091 -0.0785,0.14883 0,0.0527 0.0186,0.0951 0.0579,0.12816 0.0351,0.0331 0.13023,0.0682 0.28525,0.10335 0.154,0.0331 0.25839,0.0641 0.3142,0.0909 0.0847,0.0362 0.14676,0.0848 0.18603,0.1447 0.0413,0.0579 0.062,0.12609 0.062,0.20257 0,0.0775 -0.0227,0.15089 -0.0661,0.21911 -0.0444,0.0661 -0.10749,0.11885 -0.19017,0.15709 -0.0806,0.0351 -0.1726,0.0538 -0.27699,0.0538 -0.13022,0 -0.23874,-0.0196 -0.32659,-0.0579 -0.0858,-0.0382 -0.15296,-0.0951 -0.20257,-0.1695 -0.0496,-0.0765 -0.0765,-0.16227 -0.0785,-0.25632 z m 1.3963,0.45889 v -1.4304 h 0.1943 l 0.75241,1.12448 v -1.12448 h 0.1819 v 1.4304 h -0.1943 l -0.75241,-1.12448 v 1.12448 z m 1.37355,-0.70693 c 0,-0.16743 0.0165,-0.30283 0.0496,-0.40515 0.0351,-0.10438 0.0879,-0.18396 0.1571,-0.23978 0.0682,-0.0579 0.15503,-0.0868 0.26045,-0.0868 0.0765,0 0.14469,0.0165 0.20257,0.0496 0.0579,0.031 0.10439,0.0744 0.14056,0.13229 0.0382,0.0579 0.0682,0.13022 0.0909,0.21497 0.0217,0.0827 0.0331,0.19431 0.0331,0.33487 0,0.16846 -0.0186,0.30489 -0.0537,0.40927 -0.0331,0.10232 -0.0847,0.18191 -0.15296,0.23978 -0.0693,0.0558 -0.15606,0.0827 -0.26045,0.0827 -0.13849,0 -0.24701,-0.0496 -0.3266,-0.14883 -0.094,-0.11783 -0.14056,-0.31213 -0.14056,-0.58291 z m 0.18191,0 c 0,0.23461 0.0269,0.3917 0.0827,0.47129 0.0548,0.0775 0.12195,0.11575 0.20257,0.11575 0.0796,0 0.14676,-0.0382 0.20257,-0.11575 0.0548,-0.0796 0.0827,-0.23668 0.0827,-0.47129 0,-0.23358 -0.0279,-0.38964 -0.0827,-0.46716 -0.0558,-0.0796 -0.12299,-0.11989 -0.20257,-0.11989 -0.0827,0 -0.14779,0.0351 -0.1943,0.10336 -0.061,0.0889 -0.091,0.25011 -0.091,0.48369 z m 1.59163,0.70693 h -0.17363 v -1.12034 c -0.0444,0.0413 -0.10129,0.0827 -0.1695,0.12402 -0.0662,0.0393 -0.12713,0.0682 -0.1819,0.0868 v -0.1695 c 0.0961,-0.0465 0.1819,-0.10129 0.25631,-0.16537 0.0744,-0.0661 0.12609,-0.13022 0.1571,-0.1943 h 0.11162 z m 0.45062,-0.3762 0.17777,-0.0248 c 0.0186,0.0992 0.0517,0.17157 0.0992,0.21498 0.0496,0.0444 0.10956,0.0661 0.18191,0.0661 0.0827,0 0.15089,-0.0289 0.2067,-0.0868 0.0579,-0.0579 0.0868,-0.12815 0.0868,-0.21084 0,-0.0827 -0.0269,-0.14986 -0.0786,-0.20257 -0.0527,-0.0517 -0.11989,-0.0785 -0.20257,-0.0785 -0.0331,0 -0.0744,0.007 -0.12403,0.0207 l 0.0207,-0.15297 c 0.0103,0 0.0207,0 0.0289,0 0.0744,0 0.14056,-0.0186 0.19844,-0.0579 0.0599,-0.0382 0.0909,-0.0992 0.0909,-0.18191 0,-0.063 -0.0227,-0.11575 -0.0661,-0.15709 -0.0413,-0.0434 -0.0971,-0.0662 -0.16536,-0.0662 -0.0692,0 -0.12712,0.0227 -0.17363,0.0662 -0.0445,0.0413 -0.0734,0.10542 -0.0868,0.19017 l -0.17363,-0.0289 c 0.0186,-0.11782 0.0672,-0.20877 0.14469,-0.27285 0.0765,-0.0661 0.17157,-0.0992 0.28526,-0.0992 0.0765,0 0.14882,0.0165 0.21497,0.0496 0.0661,0.0331 0.11575,0.0806 0.14883,0.14056 0.0351,0.0579 0.0537,0.11885 0.0537,0.1819 0,0.0641 -0.0165,0.11989 -0.0496,0.1695 -0.0331,0.0496 -0.0827,0.0899 -0.14883,0.11989 0.0847,0.0196 0.1509,0.061 0.19844,0.12402 0.0465,0.061 0.0703,0.13849 0.0703,0.23151 0,0.12402 -0.0455,0.23048 -0.13643,0.31833 -0.0909,0.0858 -0.2067,0.12816 -0.34726,0.12816 -0.12402,0 -0.22738,-0.0372 -0.31006,-0.11163 -0.0827,-0.0744 -0.13126,-0.17053 -0.14469,-0.28938 z m 1.11208,0 0.17776,-0.0248 c 0.0186,0.0992 0.0517,0.17157 0.0992,0.21498 0.0496,0.0444 0.10955,0.0661 0.1819,0.0661 0.0827,0 0.1509,-0.0289 0.20671,-0.0868 0.0579,-0.0579 0.0868,-0.12815 0.0868,-0.21084 0,-0.0827 -0.0269,-0.14986 -0.0785,-0.20257 -0.0527,-0.0517 -0.11989,-0.0785 -0.20258,-0.0785 -0.0331,0 -0.0744,0.007 -0.12402,0.0207 l 0.0207,-0.15297 c 0.0103,0 0.0207,0 0.0289,0 0.0744,0 0.14056,-0.0186 0.19844,-0.0579 0.0599,-0.0382 0.091,-0.0992 0.091,-0.18191 0,-0.063 -0.0227,-0.11575 -0.0661,-0.15709 -0.0413,-0.0434 -0.0972,-0.0662 -0.16536,-0.0662 -0.0692,0 -0.12713,0.0227 -0.17364,0.0662 -0.0444,0.0413 -0.0734,0.10542 -0.0868,0.19017 l -0.17364,-0.0289 c 0.0186,-0.11782 0.0672,-0.20877 0.1447,-0.27285 0.0765,-0.0661 0.17156,-0.0992 0.28525,-0.0992 0.0765,0 0.14883,0.0165 0.21498,0.0496 0.0661,0.0331 0.11575,0.0806 0.14882,0.14056 0.0351,0.0579 0.0537,0.11885 0.0537,0.1819 0,0.0641 -0.0165,0.11989 -0.0496,0.1695 -0.0331,0.0496 -0.0827,0.0899 -0.14883,0.11989 0.0847,0.0196 0.1509,0.061 0.19844,0.12402 0.0465,0.061 0.0703,0.13849 0.0703,0.23151 0,0.12402 -0.0455,0.23048 -0.13643,0.31833 -0.091,0.0858 -0.2067,0.12816 -0.34726,0.12816 -0.12403,0 -0.22738,-0.0372 -0.31006,-0.11163 -0.0827,-0.0744 -0.13126,-0.17053 -0.1447,-0.28938 z m 1.12447,-0.86817 v -0.1695 h 0.92605 v 0.13643 c -0.091,0.0971 -0.18191,0.22634 -0.27286,0.38861 -0.0889,0.16019 -0.15709,0.32556 -0.2067,0.49609 -0.0331,0.11886 -0.0558,0.25011 -0.0661,0.39274 h -0.1819 c 0.002,-0.11265 0.0248,-0.24908 0.0661,-0.40928 0.0434,-0.15916 0.10438,-0.31212 0.1819,-0.45888 0.0796,-0.14883 0.16536,-0.27389 0.25631,-0.37621 z m 0,0 m -11.01786,3.69885 h 0.32897 v -0.32897 h -0.32897 z m -0.32896,0 h 0.32896 v -0.32897 h -0.32896 z m -0.32897,0 h 0.32897 v -0.32897 h -0.32897 z m -0.32896,0 h 0.32896 v -0.32897 h -0.32896 z m -0.65794,0 h 0.32897 v -0.32897 h -0.32897 z m -0.98689,0 h 0.32897 v -0.32897 h -0.32897 z m -0.32897,0 h 0.32897 v -0.32897 h -0.32897 z m -0.32896,0 h 0.32896 v -0.32897 h -0.32896 z m -0.65793,0 h 0.32896 v -0.32897 h -0.32896 z m -0.32897,0 h 0.32897 v -0.32897 h -0.32897 z m -0.32897,0 h 0.32897 v -0.32897 h -0.32897 z m -0.32896,0 h 0.32896 v -0.32897 h -0.32896 z m -0.328968,0 h 0.328968 v -0.32897 h -0.328968 z m -0.328966,0 h 0.328966 v -0.32897 h -0.328966 z m -0.328965,0 h 0.328966 v -0.32897 h -0.328966 z m 6.579319,-0.32897 h 0.32896 v -0.32896 h -0.32896 z m -0.9869,0 h 0.32896 v -0.32896 h -0.32896 z m -0.32897,0 h 0.32897 v -0.32896 h -0.32897 z m -0.32896,0 h 0.32896 v -0.32896 h -0.32896 z m -0.9869,0 h 0.32897 v -0.32896 h -0.32897 z m -0.32897,0 h 0.32897 v -0.32896 h -0.32897 z m -1.64482,0 h 0.32896 v -0.32896 h -0.32896 z m -1.973799,0 h 0.328966 v -0.32896 h -0.328966 z m 6.579319,-0.32896 h 0.32896 v -0.32897 h -0.32896 z m -0.65794,0 h 0.32897 v -0.32897 h -0.32897 z m -0.65793,0 h 0.32897 v -0.32897 h -0.32897 z m -0.32896,0 h 0.32896 v -0.32897 h -0.32896 z m -0.32897,0 h 0.32897 v -0.32897 h -0.32897 z m -0.32897,0 h 0.32897 v -0.32897 h -0.32897 z m -0.65793,0 h 0.32897 v -0.32897 h -0.32897 z m -0.32896,0 h 0.32897 v -0.32897 h -0.32897 z m -0.32897,0 h 0.32897 v -0.32897 h -0.32897 z m -0.98689,0 h 0.32896 v -0.32897 h -0.32896 z m -0.65794,0 h 0.32897 v -0.32897 h -0.32897 z m -0.32896,0 h 0.32896 v -0.32897 h -0.32896 z m -0.328968,0 h 0.328968 v -0.32897 h -0.328968 z m -0.657931,0 h 0.328966 v -0.32897 h -0.328966 z m 6.579319,-0.32897 h 0.32896 v -0.32896 h -0.32896 z m -0.32897,0 h 0.32897 v -0.32896 h -0.32897 z m -0.32897,0 h 0.32897 v -0.32896 h -0.32897 z m -0.32896,0 h 0.32896 v -0.32896 h -0.32896 z m -0.32897,0 h 0.32897 v -0.32896 h -0.32897 z m -0.65793,0 h 0.32897 v -0.32896 h -0.32897 z m -0.32897,0 h 0.32897 v -0.32896 h -0.32897 z m -1.31586,0 h 0.32897 v -0.32896 h -0.32897 z m -0.32896,0 h 0.32896 v -0.32896 h -0.32896 z m -0.65793,0 h 0.32896 v -0.32896 h -0.32896 z m -0.65794,0 h 0.32897 v -0.32896 h -0.32897 z m -0.32896,0 h 0.32896 v -0.32896 h -0.32896 z m -0.328968,0 h 0.328968 v -0.32896 h -0.328968 z m -0.657931,0 h 0.328966 v -0.32896 h -0.328966 z m 6.579319,-0.32896 h 0.32896 v -0.32897 h -0.32896 z m -0.65794,0 h 0.32897 v -0.32897 h -0.32897 z m -1.31586,0 h 0.32897 v -0.32897 h -0.32897 z m -0.32897,0 h 0.32897 v -0.32897 h -0.32897 z m -0.32896,0 h 0.32897 v -0.32897 h -0.32897 z m -0.65793,0 h 0.32897 v -0.32897 h -0.32897 z m -0.32897,0 h 0.32897 v -0.32897 h -0.32897 z m -0.98689,0 h 0.32896 v -0.32897 h -0.32896 z m -0.65794,0 h 0.32897 v -0.32897 h -0.32897 z m -0.32896,0 h 0.32896 v -0.32897 h -0.32896 z m -0.328968,0 h 0.328968 v -0.32897 h -0.328968 z m -0.657931,0 h 0.328966 v -0.32897 h -0.328966 z m 6.250349,-0.32897 h 0.32897 v -0.32897 h -0.32897 z m -0.65793,0 h 0.32896 v -0.32897 h -0.32896 z m -0.65793,0 h 0.32896 v -0.32897 h -0.32896 z m -0.32897,0 h 0.32897 v -0.32897 h -0.32897 z m -1.64483,0 h 0.32897 v -0.32897 h -0.32897 z m -0.32896,0 h 0.32896 v -0.32897 h -0.32896 z m -0.65793,0 h 0.32896 v -0.32897 h -0.32896 z m -1.973799,0 h 0.328966 v -0.32897 h -0.328966 z m 5.592419,-0.32897 h 0.32896 v -0.32896 h -0.32896 z m -0.32897,0 h 0.32897 v -0.32896 h -0.32897 z m -0.65793,0 h 0.32897 v -0.32896 h -0.32897 z m -0.65793,0 h 0.32897 v -0.32896 h -0.32897 z m -0.32897,0 h 0.32897 v -0.32896 h -0.32897 z m -1.64482,0 h 0.32896 v -0.32896 h -0.32896 z m -0.32897,0 h 0.32897 v -0.32896 h -0.32897 z m -0.32897,0 h 0.32897 v -0.32896 h -0.32897 z m -0.32896,0 h 0.32896 v -0.32896 h -0.32896 z m -0.328968,0 h 0.328968 v -0.32896 h -0.328968 z m -0.328966,0 h 0.328966 v -0.32896 h -0.328966 z m -0.328965,0 h 0.328966 v -0.32896 h -0.328966 z m 6.250349,-0.32896 h 0.32897 v -0.32897 h -0.32897 z m -0.9869,0 h 0.32897 v -0.32897 h -0.32897 z m -0.32896,0 h 0.32896 v -0.32897 h -0.32896 z m -0.32897,0 h 0.32897 v -0.32897 h -0.32897 z m -0.32897,0 h 0.32897 v -0.32897 h -0.32897 z m -1.31586,0 h 0.32897 v -0.32897 h -0.32897 z m -0.32896,0 h 0.32896 v -0.32897 h -0.32896 z m 3.61862,-0.32897 h 0.32897 v -0.32896 h -0.32897 z m -0.32897,0 h 0.32897 v -0.32896 h -0.32897 z m -0.32896,0 h 0.32896 v -0.32896 h -0.32896 z m -0.65793,0 h 0.32896 v -0.32896 h -0.32896 z m -0.32897,0 h 0.32897 v -0.32896 h -0.32897 z m -0.32897,0 h 0.32897 v -0.32896 h -0.32897 z m -0.65793,0 h 0.32897 v -0.32896 h -0.32897 z m -0.32896,0 h 0.32897 v -0.32896 h -0.32897 z m -0.65793,0 h 0.32896 v -0.32896 h -0.32896 z m -0.32897,0 h 0.32897 v -0.32896 h -0.32897 z m -0.32896,0 h 0.32896 v -0.32896 h -0.32896 z m -0.32897,0 h 0.32897 v -0.32896 h -0.32897 z m -0.65793,0 h 0.32896 v -0.32896 h -0.32896 z m 5.59242,-0.32896 h 0.32896 v -0.32897 h -0.32896 z m -1.31587,0 h 0.32897 v -0.32897 h -0.32897 z m -0.32896,0 h 0.32896 v -0.32897 h -0.32896 z m -0.32897,0 h 0.32897 v -0.32897 h -0.32897 z m -0.32897,0 h 0.32897 v -0.32897 h -0.32897 z m -0.32896,0 h 0.32897 v -0.32897 h -0.32897 z m -0.9869,0 h 0.32897 v -0.32897 h -0.32897 z m -0.32896,0 h 0.32896 v -0.32897 h -0.32896 z m -1.31587,0 h 0.32897 v -0.32897 h -0.32897 z m -0.657928,0 h 0.328968 v -0.32897 h -0.328968 z m 5.263448,-0.32897 h 0.32897 v -0.32896 h -0.32897 z m -0.65793,0 h 0.32897 v -0.32896 h -0.32897 z m -0.32896,0 h 0.32896 v -0.32896 h -0.32896 z m -0.32897,0 h 0.32897 v -0.32896 h -0.32897 z m -0.9869,0 h 0.32897 v -0.32896 h -0.32897 z m -0.32896,0 h 0.32897 v -0.32896 h -0.32897 z m -0.32897,0 h 0.32897 v -0.32896 h -0.32897 z m -0.65793,0 h 0.32897 v -0.32896 h -0.32897 z m -0.32896,0 h 0.32896 v -0.32896 h -0.32896 z m -0.9869,0 h 0.32896 v -0.32896 h -0.32896 z m 5.59242,-0.32896 h 0.32896 v -0.32897 h -0.32896 z m -0.32897,0 h 0.32897 v -0.32897 h -0.32897 z m -0.32897,0 h 0.32897 v -0.32897 h -0.32897 z m -0.32896,0 h 0.32896 v -0.32897 h -0.32896 z m -0.65793,0 h 0.32896 v -0.32897 h -0.32896 z m -0.65794,0 h 0.32897 v -0.32897 h -0.32897 z m -0.65793,0 h 0.32897 v -0.32897 h -0.32897 z m -0.32896,0 h 0.32897 v -0.32897 h -0.32897 z m -0.32897,0 h 0.32897 v -0.32897 h -0.32897 z m -1.64483,0 h 0.32897 v -0.32897 h -0.32897 z m -0.32896,0 h 0.32896 v -0.32897 h -0.32896 z m -0.328968,0 h 0.328968 v -0.32897 h -0.328968 z m -0.328966,0 h 0.328966 v -0.32897 h -0.328966 z m -0.328965,0 h 0.328966 v -0.32897 h -0.328966 z m 4.934489,-0.32897 h 0.32896 v -0.32896 h -0.32896 z m -0.65794,0 h 0.32897 v -0.32896 h -0.32897 z m -0.32896,0 h 0.32897 v -0.32896 h -0.32897 z m -0.32897,0 h 0.32897 v -0.32896 h -0.32897 z m -0.98689,0 h 0.32896 v -0.32896 h -0.32896 z m -0.65793,0 h 0.32896 v -0.32896 h -0.32896 z m -0.32897,0 h 0.32897 v -0.32896 h -0.32897 z m -0.65793,0 h 0.32896 v -0.32896 h -0.32896 z m -0.986899,0 h 0.328966 v -0.32896 h -0.328966 z m 2.960689,-0.32896 h 0.32897 v -0.32897 h -0.32897 z m 3.61863,-0.32897 h 0.32896 v -0.32896 h -0.32896 z m -0.32897,0 h 0.32897 v -0.32896 h -0.32897 z m -0.32897,0 h 0.32897 v -0.32896 h -0.32897 z m -0.32896,0 h 0.32896 v -0.32896 h -0.32896 z m -0.32897,0 h 0.32897 v -0.32896 h -0.32897 z m -0.32896,0 h 0.32896 v -0.32896 h -0.32896 z m -0.32897,0 h 0.32897 v -0.32896 h -0.32897 z m -0.65793,0 h 0.32897 v -0.32896 h -0.32897 z m -0.65793,0 h 0.32897 v -0.32896 h -0.32897 z m -0.65793,0 h 0.32896 v -0.32896 h -0.32896 z m -0.65793,0 h 0.32896 v -0.32896 h -0.32896 z m -0.32897,0 h 0.32897 v -0.32896 h -0.32897 z m -0.32897,0 h 0.32897 v -0.32896 h -0.32897 z m -0.32896,0 h 0.32896 v -0.32896 h -0.32896 z m -0.328968,0 h 0.328968 v -0.32896 h -0.328968 z m -0.328966,0 h 0.328966 v -0.32896 h -0.328966 z m -0.328965,0 h 0.328966 v -0.32896 h -0.328966 z m 6.579319,-0.32896 h 0.32896 v -0.32897 h -0.32896 z m -1.9738,0 h 0.32897 v -0.32897 h -0.32897 z m -1.97379,0 h 0.32896 v -0.32897 h -0.32896 z m -0.65793,0 h 0.32896 v -0.32897 h -0.32896 z m -1.973799,0 h 0.328966 v -0.32897 h -0.328966 z m 6.579319,-0.32897 h 0.32896 v -0.32896 h -0.32896 z m -0.65794,0 h 0.32897 v -0.32896 h -0.32897 z m -0.32896,0 h 0.32896 v -0.32896 h -0.32896 z m -0.32897,0 h 0.32897 v -0.32896 h -0.32897 z m -0.65793,0 h 0.32897 v -0.32896 h -0.32897 z m -0.65793,0 h 0.32897 v -0.32896 h -0.32897 z m -0.32897,0 h 0.32897 v -0.32896 h -0.32897 z m -0.32896,0 h 0.32897 v -0.32896 h -0.32897 z m -1.31586,0 h 0.32896 v -0.32896 h -0.32896 z m -0.65794,0 h 0.32897 v -0.32896 h -0.32897 z m -0.32896,0 h 0.32896 v -0.32896 h -0.32896 z m -0.328968,0 h 0.328968 v -0.32896 h -0.328968 z m -0.657931,0 h 0.328966 v -0.32896 h -0.328966 z m 6.579319,-0.32896 h 0.32896 v -0.32897 h -0.32896 z m -0.65794,0 h 0.32897 v -0.32897 h -0.32897 z m -0.32896,0 h 0.32896 v -0.32897 h -0.32896 z m -0.32897,0 h 0.32897 v -0.32897 h -0.32897 z m -0.65793,0 h 0.32897 v -0.32897 h -0.32897 z m -0.65793,0 h 0.32897 v -0.32897 h -0.32897 z m -0.65793,0 h 0.32897 v -0.32897 h -0.32897 z m -1.31586,0 h 0.32896 v -0.32897 h -0.32896 z m -0.65794,0 h 0.32897 v -0.32897 h -0.32897 z m -0.32896,0 h 0.32896 v -0.32897 h -0.32896 z m -0.328968,0 h 0.328968 v -0.32897 h -0.328968 z m -0.657931,0 h 0.328966 v -0.32897 h -0.328966 z m 6.579319,-0.32897 h 0.32896 v -0.32896 h -0.32896 z m -0.65794,0 h 0.32897 v -0.32896 h -0.32897 z m -0.32896,0 h 0.32896 v -0.32896 h -0.32896 z m -0.32897,0 h 0.32897 v -0.32896 h -0.32897 z m -0.65793,0 h 0.32897 v -0.32896 h -0.32897 z m -0.65793,0 h 0.32897 v -0.32896 h -0.32897 z m -0.65793,0 h 0.32897 v -0.32896 h -0.32897 z m -1.31586,0 h 0.32896 v -0.32896 h -0.32896 z m -0.65794,0 h 0.32897 v -0.32896 h -0.32897 z m -0.32896,0 h 0.32896 v -0.32896 h -0.32896 z m -0.328968,0 h 0.328968 v -0.32896 h -0.328968 z m -0.657931,0 h 0.328966 v -0.32896 h -0.328966 z m 6.579319,-0.32897 h 0.32896 v -0.32896 h -0.32896 z m -1.9738,0 h 0.32897 v -0.32896 h -0.32897 z m -1.31586,0 h 0.32897 v -0.32896 h -0.32897 z m -1.31586,0 h 0.32896 v -0.32896 h -0.32896 z m -1.973799,0 h 0.328966 v -0.32896 h -0.328966 z m 6.579319,-0.32896 h 0.32896 v -0.32897 h -0.32896 z m -0.32897,0 h 0.32897 v -0.32897 h -0.32897 z m -0.32897,0 h 0.32897 v -0.32897 h -0.32897 z m -0.32896,0 h 0.32896 v -0.32897 h -0.32896 z m -0.32897,0 h 0.32897 v -0.32897 h -0.32897 z m -0.32896,0 h 0.32896 v -0.32897 h -0.32896 z m -0.32897,0 h 0.32897 v -0.32897 h -0.32897 z m -0.65793,0 h 0.32897 v -0.32897 h -0.32897 z m -1.97379,0 h 0.32896 v -0.32897 h -0.32896 z m -0.32897,0 h 0.32897 v -0.32897 h -0.32897 z m -0.32897,0 h 0.32897 v -0.32897 h -0.32897 z m -0.32896,0 h 0.32896 v -0.32897 h -0.32896 z m -0.328968,0 h 0.328968 v -0.32897 h -0.328968 z m -0.328966,0 h 0.328966 v -0.32897 h -0.328966 z m -0.328965,0 h 0.328966 v -0.32897 h -0.328966 z" />
  </g>
  <metadata
     id="metadata1">
    <rdf:RDF>
      <cc:Work
         rdf:about="">
        <cc:license
           rdf:resource="http://creativecommons.org/publicdomain/zero/1.0/" />
      </cc:Work>
      <cc:License
         rdf:about="http://creativecommons.org/publicdomain/zero/1.0/">
        <cc:permits
           rdf:resource="http://creativecommons.org/ns#Reproduction" />
        <cc:permits
           rdf:resource="http://creativecommons.org/ns#Distribution" />
        <cc:permits
           rdf:resource="http://creativecommons.org/ns#DerivativeWorks" />
      </cc:License>
    </rdf:RDF>
  </metadata>
</svg>
